<?xml version="1.0" encoding="utf-8"?>
<!-- Svg Vector Icons : http://www.onlinewebfonts.com/icon -->
<!DOCTYPE svg PUBLIC "-//W3C//DTD SVG 1.1//EN" "http://www.w3.org/Graphics/SVG/1.1/DTD/svg11.dtd">
<svg version="1.1" xmlns="http://www.w3.org/2000/svg" xmlns:xlink="http://www.w3.org/1999/xlink" x="0px" y="0px" viewBox="0 0 1000 1000" enable-background="new 0 0 1000 1000" xml:space="preserve">
<metadata> Svg Vector Icons : http://www.onlinewebfonts.com/icon </metadata>
<g><g transform="translate(0.000000,511.000000) scale(0.100000,-0.100000)"><path d="M3221.3,4959.7C2822,4825.1,2521.4,4511,2404.8,4114c-33.7-109.9-35.9-401.5-35.9-2768.1v-2642.5l-143.6-152.5c-179.5-190.7-262.5-309.6-372.4-542.9c-145.8-305.1-186.2-493.5-188.4-870.3c-2.2-273.7,6.7-352.2,49.3-500.2c206.4-713.3,800.8-1258.4,1525.4-1397.5c924.2-177.2,1891,448.6,2162.4,1397.5c42.6,145.8,49.4,228.8,49.4,500.2c-2.3,376.8-42.6,563-188.4,870.3c-109.9,233.3-192.9,352.2-372.4,542.9l-143.6,152.5v2642.5c0,2366.5-2.2,2658.2-35.9,2768.1c-118.9,406-455.4,742.5-859.1,861.4C3672.2,5027,3400.8,5020.2,3221.3,4959.7z M3905.5,4463.9c136.8-69.5,244.5-179.5,311.8-325.3c47.1-103.2,47.1-109.9,53.8-2907.2l4.5-2806.2l67.3-38.1c222.1-132.4,480-462.1,578.7-740.2c80.8-233.3,94.2-567.5,29.2-825.5c-114.4-457.6-379.1-805.3-744.7-980.3c-240-114.4-383.6-148-648.3-148c-264.7,0-408.3,33.7-648.3,148c-749.2,356.7-1027.4,1433.4-549.6,2131c105.4,154.8,293.9,343.2,415,415l65,38.1v2743.4c0,1888.8,6.7,2777.1,24.7,2855.6c47.1,224.3,235.5,421.7,462.1,484.5C3492.7,4555.9,3757.4,4535.7,3905.5,4463.9z"/><path d="M3510.7,4051.2c-33.6-4.5-87.5-38.1-123.4-74l-65.1-67.3L3315.5,978l-4.5-2931.8l-141.3-65.1c-275.9-127.9-504.7-428.4-556.3-729c-74-412.8,233.3-886.1,668.5-1036.3c515.9-177.2,1114.8,201.9,1220.3,771.6c29.2,159.3-4.5,356.7-87.5,531.7c-83,170.5-296.1,381.3-468.8,462.1l-141.3,65.1L3800.1,978l-6.7,2931.8l-62.8,65C3663.2,4044.4,3609.4,4062.4,3510.7,4051.2z M3692.4-2415.9c215.3-49.4,336.5-215.4,336.5-457.6c0-293.8-183.9-482.3-471.1-482.3c-190.7,0-376.9,112.2-439.7,262.4c-44.9,105.4-38.1,336.5,11.2,446.4C3219.1-2451.8,3443.4-2357.6,3692.4-2415.9z"/><path d="M6503.1,2312.7c-529.4-529.4-545.1-547.3-545.1-634.8c0-107.7,49.4-183.9,145.8-224.3c127.9-53.8,197.4-13.5,509.2,298.3l287.1,287.1V888.3c0-1262.9,0-1269.6,132.4-1336.9c85.2-44.9,143.6-44.9,228.8,0c132.3,67.3,132.3,74,132.3,1336.9v1150.7l287.1-287.1c311.8-311.8,381.3-352.2,509.2-298.3c96.5,40.4,145.8,116.7,145.8,224.3c0,85.2-17.9,107.7-498,596.7c-275.9,278.1-527.1,522.7-560.8,545.1c-31.4,20.2-96.4,38.1-143.6,38.1C7050.4,2857.8,7023.5,2835.4,6503.1,2312.7z"/></g></g>
</svg>