<?xml version="1.0" encoding="utf-8"?>
<!-- Svg Vector Icons : http://www.onlinewebfonts.com/icon -->
<!DOCTYPE svg PUBLIC "-//W3C//DTD SVG 1.1//EN" "http://www.w3.org/Graphics/SVG/1.1/DTD/svg11.dtd">
<svg version="1.1" xmlns="http://www.w3.org/2000/svg" xmlns:xlink="http://www.w3.org/1999/xlink" x="0px" y="0px" viewBox="0 0 1000 1000" enable-background="new 0 0 1000 1000" xml:space="preserve">
<metadata> Svg Vector Icons : http://www.onlinewebfonts.com/icon </metadata>
<g><g transform="translate(0.000000,511.000000) scale(0.100000,-0.100000)"><path d="M3221.3,4959.7C2822,4825.1,2521.4,4511,2404.8,4114c-33.7-109.9-35.9-401.5-35.9-2768.1v-2642.5l-143.6-152.5c-179.5-190.7-262.5-309.6-372.4-542.9c-145.8-305.1-186.2-493.5-188.4-870.3c-2.2-273.7,6.7-352.2,49.3-500.2c206.4-713.3,800.8-1258.4,1525.4-1397.5c924.2-177.2,1891,448.6,2162.4,1397.5c42.6,145.8,49.4,228.8,49.4,500.2c-2.3,376.8-42.6,563-188.4,870.3c-109.9,233.3-192.9,352.2-372.4,542.9l-143.6,152.5v2642.5c0,2366.5-2.2,2658.2-35.9,2768.1c-118.9,406-455.4,742.5-859.1,861.4C3672.2,5027,3400.8,5020.2,3221.3,4959.7z M3905.5,4463.9c136.8-69.5,244.5-179.5,311.8-325.3c47.1-103.2,47.1-109.9,53.8-2907.2l4.5-2806.2l67.3-38.1c222.1-132.4,480-462.1,578.7-740.2c80.8-233.3,94.2-567.5,29.2-825.5c-114.4-457.6-379.1-805.3-744.7-980.3c-240-114.4-383.6-148-648.3-148c-264.7,0-408.3,33.7-648.3,148c-749.2,356.7-1027.4,1433.4-549.6,2131c105.4,154.8,293.9,343.2,415,415l65,38.1v2743.4c0,1888.8,6.7,2777.1,24.7,2855.6c47.1,224.3,235.5,421.7,462.1,484.5C3492.7,4555.9,3757.4,4535.7,3905.5,4463.9z"/><path d="M3425.4-767.2c-100.9-71.8-114.4-150.3-114.4-686.4v-500.2l-141.3-65.1c-275.9-127.9-504.7-428.4-556.3-729c-74-412.8,233.3-886.1,668.5-1036.3c515.9-177.2,1114.8,201.9,1220.3,771.6c29.2,159.3-4.5,356.7-87.5,531.7c-83,170.5-296.1,381.3-468.8,462.1l-141.3,65.1v500.2c0,536.1-13.5,614.6-114.4,686.4c-29.2,20.2-87.5,35.9-132.3,35.9S3454.6-747,3425.4-767.2z M3692.4-2415.9c215.3-49.4,336.5-215.4,336.5-457.6c0-293.8-183.9-482.3-471.1-482.3c-190.7,0-376.9,112.2-439.7,262.4c-44.9,105.4-38.1,336.5,11.2,446.4C3219.1-2451.8,3443.4-2357.6,3692.4-2415.9z"/><path d="M7014.5,2821.9c-112.1-80.8-114.4-103.2-114.4-1336.9V334.2l-302.8,302.8c-300.6,300.6-305.1,302.8-406,302.8c-87.5,0-112.2-11.2-168.2-74c-49.4-56.1-65.1-94.2-65.1-166c0-94.2,6.7-100.9,545.1-639.3l542.8-545.1h101h100.9l542.9,545.1c538.4,538.4,545.1,545.1,545.1,639.3c0,71.8-15.7,109.9-65.1,166c-56.1,62.8-80.8,74-168.2,74c-101,0-105.4-2.2-406-302.8l-302.8-302.8V1485c0,1233.8-2.2,1256.2-114.4,1336.9c-29.2,20.2-87.5,35.9-132.4,35.9S7043.7,2842.1,7014.5,2821.9z"/></g></g>
</svg>